<svg version="1" xmlns="http://www.w3.org/2000/svg" width="737.333" height="737.333" viewBox="0 0 553.000000 553.000000"><path d="M272.5 76.3l-4 3.5-.5 54.4c-.4 47.7-.7 54.5-2 54.3-2.8-.4-24.9 2.4-35.3 4.5-15.6 3.2-35.6 9.7-49.3 16l-8.2 3.8-6-10.7c-3.3-5.8-7-12.4-8.2-14.6-1.2-2.2-4.2-7.4-6.5-11.5-9.3-16.5-11.6-20.6-22-39.5-3.3-6-7.6-12.6-9.6-14.7-3.3-3.4-4.2-3.8-8.8-3.8-4.4 0-5.6.5-8.7 3.3-2.9 2.6-3.7 4.2-4.1 7.9-.6 5.4-2 2.5 23.7 48.3 9 15.9 17.6 31.2 19.1 34 1.5 2.7 3.9 7 5.2 9.4l2.6 4.5-8.7 5.7c-16.6 11-34.5 26.4-48.8 42.2l-5.2 5.6-31.8-32.1C37.8 229.2 22.7 214 21.7 213c-2.5-2.4-8.5-3.8-12.2-2.8-7.1 1.8-11.7 11.7-8.4 18.1.8 1.4 16.8 18.1 35.6 37.2l34.2 34.7-3.3 4.6c-4.7 6.6-14.4 24.1-19 34.1-5.9 13.1-6 17.6-.6 23.3 2.3 2.4 4 3.2 7.7 3.5 6.7.6 10.7-2.1 14.1-9.5 1.4-3.1 2.7-5.9 2.7-6.2 0-.3 2.5-5.2 5.4-10.9 14.4-27.6 37.5-55 64.1-75.8 34.6-26.9 77.9-44.6 118-48 67-5.7 128.8 20 183 76.2 4.9 5 15.3 17 21.9 25 5.3 6.5 16.8 22.7 23.6 33.3 10.2 15.9 14.2 18.4 23 14.8 8.4-3.5 9.6-12.8 3-23.1-7.8-12.2-16-24.3-22.8-33.3l-7-9.4 33.1-33.1c22.1-22.2 33.3-34.1 33.8-36 1.2-5.1-.3-10-4.1-13.5-1.9-1.7-4.5-3.2-5.7-3.3-4.4-.2-7.3.3-9.4 1.6-1.2.8-16.3 15.5-33.5 32.7l-31.4 31.3-12-12c-12.7-12.7-28.6-25.9-42.2-35.2-7.9-5.4-9.6-7.4-7.3-8.8.6-.4 1.7-2.1 2.5-3.8.8-1.8 2.9-5.9 4.8-9.2 7.1-12.6 37.2-66.3 41-73.3 3.4-6.4 3.9-7.9 3.4-11.9-.7-6.7-4.8-10.5-11.9-11.1-4.7-.4-5.8-.1-8.5 2.2-1.8 1.5-6.9 9.5-11.9 18.4-13.2 23.8-13.2 23.9-16 28.9-1.5 2.6-4 6.9-5.5 9.5-1.6 2.7-2.9 5-2.9 5.2 0 .5-18.9 33.9-19.5 34.4-.3.3-4.1-1.2-8.6-3.2-22.1-10.1-47.3-17-69.9-19.1-3.6-.4-7.1-.8-7.7-1-1-.3-1.3-12.9-1.5-54.4l-.3-54.1-3.2-3.1c-2.6-2.6-4.2-3.3-8.5-3.7-4.9-.4-5.6-.1-9.3 3.1z"/><path d="M267.9 228.2c-2.3.4-5.9 1-7.9 1.3-9.3 1.4-23.5 6.5-34 12.2-13.4 7.3-30.7 22.1-29.5 25.2.6 1.4 4.5 7.8 21 33.6 2.8 4.4 8.4 13.3 12.5 19.7 4.1 6.5 7.7 11.8 8 11.8.3-.1 7.6-8.7 16.2-19.3 8.7-10.6 17.1-20.8 18.7-22.7 23.6-28.4 45.9-56 45.3-56.4-.5-.3-6.9-2.3-10.2-3.1-10.1-2.6-31.3-3.8-40.1-2.3zM308 266.5c-12.9 15-23.6 27.8-23.8 28.3-.1.5 5.9 3.5 13.5 6.6 7.6 3.2 15.2 6.4 16.8 7.1 4.1 1.8 38.5 16.2 57.5 24.1 18.4 7.7 20 8.4 22.2 9.5 1 .5 1.9.9 2.1.9.2 0 .3-2.4.2-5.3-1.6-36.3-20.6-70.2-50.7-90.5-6.5-4.3-13.1-8.2-14-8.2-.2 0-10.9 12.4-23.8 27.5zM185.3 279.1c-5.5 8.2-13.5 25.3-14.8 31.9-.2.8-.8 3.4-1.4 5.6-2.8 10.6-3.5 34.7-1.3 46.4 2.1 10.7 6.3 22.8 11.2 32.4 3.7 7.1 5.1 9 6.6 8.8 2-.3 37.6-9 59.4-14.4 6.9-1.7 12.9-3.4 13.3-3.8.5-.4-8.2-14.8-19.2-32.1s-25.1-39.4-31.3-49.1c-6.2-9.8-12.2-19.3-13.3-21.1-1.1-1.8-2.9-4.6-4.1-6.2l-2.1-2.8-3 4.4zM331.9 328.2c-.1.7-.2 2.4-.4 3.8-.1 1.4-.5 7.4-.9 13.5-.4 6-.9 12.6-1.1 14.5-.2 1.9-.6 8.4-1 14.5-.3 6-.8 12.1-1 13.5-.2 1.4-.6 7.4-1 13.5-.3 6-.8 12.8-1 15-.1 2.3-.6 8.3-.9 13.5-.4 5.2-.9 11.9-1.1 14.7-.2 2.9-.2 5.3 0 5.3 1.5 0 14.9-6.8 20.3-10.4 9.2-6 11.5-7.9 20.1-16.6 8-8.2 15.1-18 20.5-28.6 3.8-7.4 9-22.5 10-29 .4-2.1.9-5.1 1.1-6.6.5-2.4 0-3-2.7-4.2-1.8-.7-7.1-3.2-11.8-5.4-4.7-2.2-13.4-6.2-19.5-9-6-2.8-15-6.9-19.8-9.1-10-4.6-9.7-4.5-9.8-2.9zM298.5 387.6c-9.3 2.4-17.9 4.6-19 4.8-1.1.2-4.2 1-7 1.6-2.7.6-5.7 1.3-6.5 1.5-.8.2-14.5 3.6-30.5 7.5-15.9 4-29.7 7.3-30.5 7.5-8.3 1.9-11.5 2.7-12.8 3.4-1.1.6.4 2.7 6.9 9.3 23.7 23.9 51.6 35.1 84.9 34.3 7.4-.2 14.2-.5 15-.8.8-.2 3.6-.7 6.3-1.2 2.6-.4 4.7-1 4.8-1.4 0-.3.2-1.5.4-2.6s.7-5.6 1.1-10c1-10.5 1-10.7 1.8-20 .4-4.4.9-9.8 1.2-12 .2-2.2.6-6.3.9-9 .3-2.8.8-7.8 1.1-11.3.4-3.4.3-6.1-.2-6.1-.5.1-8.5 2.1-17.9 4.5z"/></svg>