<?xml version="1.0" standalone="no"?>
<!DOCTYPE svg PUBLIC "-//W3C//DTD SVG 20010904//EN"
 "http://www.w3.org/TR/2001/REC-SVG-20010904/DTD/svg10.dtd">
<svg version="1.0" xmlns="http://www.w3.org/2000/svg"
 width="553.000000pt" height="553.000000pt" viewBox="0 0 553.000000 553.000000"
 preserveAspectRatio="xMidYMid meet">
<metadata>
Created by potrace 1.14, written by Peter Selinger 2001-2017
</metadata>
<g transform="translate(0.000000,553.000000) scale(0.100000,-0.100000)"
fill="#000000" stroke="none">
<path d="M2725 4767 l-40 -35 -5 -544 c-4 -477 -7 -545 -20 -543 -28 4 -249
-24 -353 -45 -156 -32 -356 -97 -493 -160 l-82 -38 -60 107 c-33 58 -70 124
-82 146 -12 22 -42 74 -65 115 -93 165 -116 206 -220 395 -33 60 -76 126 -96
147 -33 34 -42 38 -88 38 -44 0 -56 -5 -87 -33 -29 -26 -37 -42 -41 -79 -6
-54 -20 -25 237 -483 90 -159 176 -312 191 -340 15 -27 39 -70 52 -94 l26 -45
-87 -57 c-166 -110 -345 -264 -488 -422 l-52 -56 -318 321 c-176 176 -327 328
-337 338 -25 24 -85 38 -122 28 -71 -18 -117 -117 -84 -181 8 -14 168 -181
356 -372 l342 -347 -33 -46 c-47 -66 -144 -241 -190 -341 -59 -131 -60 -176
-6 -233 23 -24 40 -32 77 -35 67 -6 107 21 141 95 14 31 27 59 27 62 0 3 25
52 54 109 144 276 375 550 641 758 346 269 779 446 1180 480 670 57 1288 -200
1830 -762 49 -50 153 -170 219 -250 53 -65 168 -227 236 -333 102 -159 142
-184 230 -148 84 35 96 128 30 231 -78 122 -160 243 -228 333 l-70 94 331 331
c221 222 333 341 338 360 12 51 -3 100 -41 135 -19 17 -45 32 -57 33 -44 2
-73 -3 -94 -16 -12 -8 -163 -155 -335 -327 l-314 -313 -120 120 c-127 127
-286 259 -422 352 -79 54 -96 74 -73 88 6 4 17 21 25 38 8 18 29 59 48 92 71
126 372 663 410 733 34 64 39 79 34 119 -7 67 -48 105 -119 111 -47 4 -58 1
-85 -22 -18 -15 -69 -95 -119 -184 -132 -238 -132 -239 -160 -289 -15 -26 -40
-69 -55 -95 -16 -27 -29 -50 -29 -52 0 -5 -189 -339 -195 -344 -3 -3 -41 12
-86 32 -221 101 -473 170 -699 191 -36 4 -71 8 -77 10 -10 3 -13 129 -15 544
l-3 541 -32 31 c-26 26 -42 33 -85 37 -49 4 -56 1 -93 -31z"/>
<path d="M2679 3248 c-23 -4 -59 -10 -79 -13 -93 -14 -235 -65 -340 -122 -134
-73 -307 -221 -295 -252 6 -14 45 -78 210 -336 28 -44 84 -133 125 -197 41
-65 77 -118 80 -118 3 1 76 87 162 193 87 106 171 208 187 227 236 284 459
560 453 564 -5 3 -69 23 -102 31 -101 26 -313 38 -401 23z"/>
<path d="M3080 2865 c-129 -150 -236 -278 -238 -283 -1 -5 59 -35 135 -66 76
-32 152 -64 168 -71 41 -18 385 -162 575 -241 184 -77 200 -84 222 -95 10 -5
19 -9 21 -9 2 0 3 24 2 53 -16 363 -206 702 -507 905 -65 43 -131 82 -140 82
-2 0 -109 -124 -238 -275z"/>
<path d="M1853 2739 c-55 -82 -135 -253 -148 -319 -2 -8 -8 -34 -14 -56 -28
-106 -35 -347 -13 -464 21 -107 63 -228 112 -324 37 -71 51 -90 66 -88 20 3
376 90 594 144 69 17 129 34 133 38 5 4 -82 148 -192 321 -110 173 -251 394
-313 491 -62 98 -122 193 -133 211 -11 18 -29 46 -41 62 l-21 28 -30 -44z"/>
<path d="M3319 2248 c-1 -7 -2 -24 -4 -38 -1 -14 -5 -74 -9 -135 -4 -60 -9
-126 -11 -145 -2 -19 -6 -84 -10 -145 -3 -60 -8 -121 -10 -135 -2 -14 -6 -74
-10 -135 -3 -60 -8 -128 -10 -150 -1 -23 -6 -83 -9 -135 -4 -52 -9 -119 -11
-147 -2 -29 -2 -53 0 -53 15 0 149 68 203 104 92 60 115 79 201 166 80 82 151
180 205 286 38 74 90 225 100 290 4 21 9 51 11 66 5 24 0 30 -27 42 -18 7 -71
32 -118 54 -47 22 -134 62 -195 90 -60 28 -150 69 -198 91 -100 46 -97 45 -98
29z"/>
<path d="M2985 1654 c-93 -24 -179 -46 -190 -48 -11 -2 -42 -10 -70 -16 -27
-6 -57 -13 -65 -15 -8 -2 -145 -36 -305 -75 -159 -40 -297 -73 -305 -75 -83
-19 -115 -27 -128 -34 -11 -6 4 -27 69 -93 237 -239 516 -351 849 -343 74 2
142 5 150 8 8 2 36 7 63 12 26 4 47 10 48 14 0 3 2 15 4 26 2 11 7 56 11 100
10 105 10 107 18 200 4 44 9 98 12 120 2 22 6 63 9 90 3 28 8 78 11 113 4 34
3 61 -2 61 -5 -1 -85 -21 -179 -45z"/>
</g>
</svg>
