<svg version="1" xmlns="http://www.w3.org/2000/svg" width="981.333" height="981.333" viewBox="0 0 736.000000 736.000000"><path d="M368 113.5c-4.3 2-6.8 4.2-8.8 8-1.5 2.7-1.7 10.2-1.8 73.3-.1 38.6-.3 70.5-.6 70.8-.3.3-3 .7-5.9.9-14.2.9-27.4 2.8-48.6 6.9-15.6 3.1-50.8 15.2-65.5 22.6-4.1 2-6 2.5-6.6 1.7-.8-1.1-2.6-4.2-8.9-15.7-2.2-3.9-50.9-90.6-55.5-98.8-1.6-2.9-4.6-6.5-6.6-8-3-2.3-4.5-2.7-9.6-2.7-10.6.1-17.1 6.3-17.1 16.5 0 5.7 1.6 8.9 22.9 46.5 1.5 2.7 3.9 7 5.3 9.5s10.8 19.3 21 37.3l18.4 32.8-2.3 1.9c-1.3 1.1-2.6 1.9-3 2-1.5 0-24.6 17-35.4 25.8-11.4 9.4-26.7 24-37.1 35.5l-6.1 6.7-8.2-8.2c-49.2-49.9-80.8-81.2-83.1-82.4-8.3-4.3-19.8 0-23.3 8.7-1.9 4.6-2 7-.5 12.2 1.2 4.3-.2 2.8 57.2 60.6L95.1 415l-3.9 5.2C78.2 438 58.7 477 58.8 485c.2 9.9 7.5 17.3 17.2 17.3 8.7 0 13.2-3.9 18.3-15.8 6.8-16 15.6-31.9 25.9-47.4 4.9-7.2 13.5-19 14.8-20.1.3-.3 1.6-1.9 2.9-3.5 7.7-10.1 27.4-30.1 40.6-41.2 19.7-16.7 41-30.7 64.6-42.5 11.1-5.5 33.7-15.1 38.4-16.3.6-.1 1.7-.5 2.5-.8 5.9-2.4 31.6-8.8 40.5-10.2 2.2-.3 6.7-1 10-1.5 9.9-1.5 23.2-2.4 36.5-2.4 13.1.1 31.9 1.1 34.2 1.9.7.2 3.1.6 5.3.9 6.7.7 24.5 4.6 34 7.3 25.8 7.4 52.8 19.6 76.5 34.6 9.1 5.7 32.2 22.7 38.5 28.2 11.6 10.2 14.9 13.2 22 20.2 9.5 9.4 18 18.4 25.5 27.2 3 3.5 6 7 6.7 7.6 3.9 4 25.4 33.5 34.4 47.5 14.5 22.2 14.9 22.6 19.1 24.6 4.7 2.1 7.3 2.3 12.4.9 5.2-1.5 8.9-4.8 10.8-9.7 2.3-5.5 2-9.8-1-15.4-3.9-7.4-24.4-38.1-34.5-51.4l-8.9-11.9 43.5-43.5c28.3-28.3 44.1-44.7 45-47 6.2-14.7-9.6-29.3-23.7-22-1.6.8-21.8 20.4-44.9 43.5-23 23-42.2 41.9-42.5 41.9-.4 0-6.1-5.5-12.8-12.3-20-20.4-37.8-35.3-61.3-51.4l-10.2-7 2-3.9c1.2-2.1 2.7-4.8 3.3-5.9.7-1.1 2.8-4.7 4.6-8 1.8-3.3 8.5-15.2 14.8-26.5 11.2-20 27.9-50 31.9-57 1.1-1.9 4.5-8.1 7.7-13.8 7.2-12.9 8-15.3 6.5-21.4-2.2-9.6-11.6-15.3-21-12.8-7.4 2-7.8 2.6-34.3 50.5-4.7 8.5-26.4 47.1-36.3 64.8-5.6 9.9-10 16.6-10.6 16.3-.7-.2-7-3-14.2-6.1-19.4-8.4-46.3-16.9-63-20-11.2-2-22.1-3.6-28.5-4.1-4.1-.3-8.1-.7-8.7-.9-1-.4-1.3-15.3-1.3-70.6 0-68.9 0-70.3-2.1-74.3-1.1-2.3-3.5-5.2-5.3-6.4-4.3-3-12-3.7-16.6-1.7z"/><path d="M360.8 318.5c-.3.3-3.4.8-11.8 2-27.8 3.9-59.3 20.2-82.2 42.6l-5.9 5.8 3.8 6c2.1 3.3 14.6 23.1 27.8 44 13.2 20.9 24.3 37.9 24.7 37.8.6-.2 17.9-21 49.3-59.1 7.2-8.7 14.2-17.2 15.6-19 1.5-1.7 7.5-9 13.4-16.1 5.8-7.2 11.4-13.9 12.3-15 3.2-3.8 14.7-18 16-19.6 1.1-1.5.3-1.9-7-3.9-14.3-3.9-23.8-5.2-40-5.5-8.7-.1-15.9-.1-16 0zM427.5 350.6c-7.7 9.1-14.7 17.3-15.5 18.2-.8.9-5 5.7-9.2 10.7-4.2 4.9-11.5 13.5-16.2 18.9l-8.6 10 3.2 1.4c1.8.7 8.5 3.5 14.8 6.2 6.3 2.6 31.1 13 55 23 72.7 30.5 76.4 32 77.1 32 1.3 0-.2-18.5-2.1-27.5-.5-2.2-1.2-5.6-1.5-7.5-1.7-9.5-10.6-31.2-18.3-44.5-6.8-11.8-25.6-32.7-37-41.2-2-1.5-3.9-3-4.2-3.3-1.9-2.2-21.1-13.1-22.7-12.9-.4 0-7.1 7.4-14.8 16.5zM246.5 388.1c-10.5 15.9-19.1 37.6-22 55.2-.3 1.7-.8 4.5-1.1 6.2-1.4 6.8-2 29.3-.9 38 2.1 17.8 7.4 36.5 14.6 50.8 3.3 6.6 6.9 13.3 8.5 15.5.1.2 10.2-2.2 22.6-5.3 12.3-3 23.3-5.7 24.4-6 13.7-2.9 52.4-13.1 52.4-13.8 0-.4-2.4-4.5-5.3-9s-10.2-16-16.3-25.5c-6-9.5-18.3-28.9-27.4-43.2-9.1-14.3-21.4-33.7-27.5-43.2-6-9.5-11.9-18.7-13-20.4-1.1-1.7-2.5-4-3.1-4.9-.9-1.6-1.7-.8-5.9 5.6zM442.9 451.2c-.3.6-.6 4.7-1.3 15.3-.4 6-.9 13-1.1 15.5-.3 2.5-.7 8.5-1 13.5-.3 4.9-.7 11-1 13.5-.2 2.5-.7 9.2-1.1 15-.4 5.8-.8 12.1-.9 14-.2 1.9-.5 7.8-.9 13s-.9 12.9-1.1 17c-.3 4.1-.8 9.5-1 12-.3 2.5-.7 8.8-1 14-.3 5.2-.8 11.9-1.1 14.7-.4 3.9-.1 5.3.8 5.3 3.5 0 31.7-16.1 37.4-21.4.7-.6 4.1-3.6 7.6-6.6 24.1-20.8 42-52.1 48.6-85 1.8-9 1.6-13-.8-13-.4 0-16.3-7.1-35.2-15.9-48.9-22.6-46.6-21.6-46.9-20.9zM403 530.5c-9.6 2.5-18.8 4.7-20.5 5-1.6.3-5.7 1.3-9 2.1-3.3.9-6.7 1.7-7.5 1.9-.8.2-8.2 2-16.5 4-8.2 2-15.7 3.8-16.5 4-.8.2-13.6 3.4-28.5 7-14.8 3.6-32.1 7.8-38.4 9.3l-11.5 2.7 6.2 7.2c10.6 12.3 28.5 26.1 44.8 34.6 13.2 6.8 34.7 13.6 48.9 15.4 7.8 1 34.6 1 41 0 10.8-1.7 16.5-3 17.4-4.1.5-.6 1.2-5.2 1.6-10.1.3-5 .8-10.1 1.1-11.5.6-3.6 1.2-9.2 1.9-19 .3-4.7.8-9.2 1-10 .2-.8.7-5.5 1-10.4.4-5 .8-9.7 1-10.6.2-.8.6-5.3 1-9.9.4-4.7.8-9.3 1-10.3.2-1-.2-1.8-.8-1.7-.7 0-9.1 2-18.7 4.4z"/></svg>