<?xml version="1.0" encoding="UTF-8"?>
<svg width="229mm" height="150mm" version="1.1" viewBox="0 0 229 150" xmlns="http://www.w3.org/2000/svg" xmlns:cc="http://creativecommons.org/ns#" xmlns:dc="http://purl.org/dc/elements/1.1/" xmlns:rdf="http://www.w3.org/1999/02/22-rdf-syntax-ns#">
    <metadata>
        <rdf:RDF>
            <cc:Work rdf:about="">
                <dc:format>image/svg+xml</dc:format>
                <dc:type rdf:resource="http://purl.org/dc/dcmitype/StillImage"/>
                <dc:title/>
            </cc:Work>
        </rdf:RDF>
    </metadata>
    <g transform="translate(0,-147)" fill="#fff">
        <g transform="matrix(.35278 0 0 -.35278 -71.715 756.49)">
            <g fill="#fff">
                <g fill="#fff">
                    <g fill="#fff">
                        <path d="m536.46 1484.7 113.05-47.398c0 45.511-26.414 84.854-64.746 103.54z" fill="#fff"/>
                    </g>
                </g>
            </g>
        </g>
        <g transform="matrix(.35278 0 0 -.35278 -71.715 756.49)">
            <g fill="#fff">
                <g fill="#fff">
                    <g fill="#fff">
                        <path d="m448.76 1514.2 42.073-66.313 81.008 98.285c-11.737 4.035-24.332 6.224-37.439 6.224-34.007 0-64.57-14.747-85.642-38.196" fill="#fff"/>
                    </g>
                </g>
            </g>
        </g>
        <g transform="matrix(.35278 0 0 -.35278 -71.715 756.49)">
            <g fill="#fff">
                <g fill="#fff">
                    <g fill="#fff">
                        <path d="m419.29 1437.3c0-22.787 6.621-44.027 18.044-61.902l74.985 18.626-70.793 111.29c-13.979-19.056-22.236-42.573-22.236-68.018" fill="#fff"/>
                    </g>
                </g>
            </g>
        </g>
        <g transform="matrix(.35278 0 0 -.35278 -71.715 756.49)">
            <g fill="#fff">
                <g fill="#fff">
                    <g fill="#fff">
                        <path d="m444.01 1366c21.079-26.695 53.732-43.828 90.387-43.828 9.91 0 19.528 1.253 28.702 3.607l6.92 70.875z" fill="#fff"/>
                    </g>
                </g>
            </g>
        </g>
        <g transform="matrix(.35278 0 0 -.35278 -71.715 756.49)">
            <g fill="#fff">
                <g fill="#fff">
                    <g fill="#fff">
                        <path d="m576.29 1330c38.859 15.192 67.441 50.895 72.434 93.795l-63.695 29.35z" fill="#fff"/>
                    </g>
                </g>
            </g>
        </g>
        <g transform="matrix(.35278 0 0 -.35278 -71.715 756.49)">
            <g fill="#fff">
                <g fill="#fff">
                    <g fill="#fff">
                        <path d="m521 1694.1v-102.62c-2.72-0.126-5.444-0.294-8.175-0.516-29.854-2.421-59.227-10.591-86.821-23.988l-49.668 88.484c-3.514 6.26-11.439 8.487-17.699 4.972-6.261-3.514-8.487-11.439-4.973-17.699l49.546-88.266c-7.284-4.48-14.41-9.337-21.343-14.576-15.313-11.574-29.339-24.81-41.709-39.227l-64.919 65.578c-5.051 5.102-13.282 5.143-18.385 0.092-5.102-5.05-5.144-13.282-0.093-18.384l67.328-68.012c-10.621-15.215-19.459-31.364-26.149-47.989-2.681-6.66 0.546-14.232 7.207-16.913 1.59-0.641 3.233-0.944 4.849-0.944 5.149 0 10.023 3.081 12.064 8.151 31.149 77.4 110.46 136.12 192.87 142.81 89.344 7.249 172.07-44.139 232.95-144.69 3.716-6.142 11.709-8.105 17.853-4.388 6.142 3.719 8.106 11.713 4.387 17.854-10.342 17.081-21.269 32.838-32.74 47.262l63.813 63.813c5.076 5.076 5.076 13.308 0 18.385s-13.31 5.077-18.386 0l-62.335-62.336c-19.687 21.547-40.82 39.424-63.258 53.507l52.135 93.294c3.501 6.267 1.26 14.187-5.007 17.69s-14.189 1.261-17.691-5.007l-52.111-93.252c-28.117 13.969-57.416 22.007-87.54 24.033v102.88c0 7.18-5.82 13-13 13s-13-5.82-13-13" fill="#fff"/>
                    </g>
                </g>
            </g>
        </g>
    </g>
</svg>
